<svg width="226" height="233" viewBox="0 0 226 233" fill="none" xmlns="http://www.w3.org/2000/svg">
<path d="M100.951 52.946H99.8387V19.4098C99.8387 16.8609 99.3825 14.3369 98.4961 11.982C97.6097 9.62706 96.3105 7.48733 94.6727 5.68496C93.0349 3.88259 91.0906 2.45287 88.9507 1.47744C86.8108 0.502007 84.5173 -3.8492e-05 82.201 -3.05175e-05H17.6376C15.3214 -3.8492e-05 13.0279 0.502007 10.888 1.47744C8.7481 2.45287 6.80374 3.88259 5.16594 5.68497C3.52813 7.48734 2.22895 9.62706 1.34258 11.982C0.456203 14.3369 -3.62318e-06 16.8609 0 19.4098V203.392C-2.1739e-06 205.941 0.456206 208.465 1.34258 210.82C2.22895 213.175 3.52813 215.314 5.16594 217.117C6.80374 218.919 8.7481 220.349 10.888 221.324C13.0279 222.3 15.3214 222.802 17.6376 222.802H82.201C84.5173 222.802 86.8108 222.3 88.9507 221.324C91.0906 220.349 93.0349 218.919 94.6727 217.117C96.3105 215.314 97.6097 213.175 98.4961 210.82C99.3825 208.465 99.8387 205.941 99.8387 203.392V76.8176H100.951V52.946Z" fill="#4592AF"/>
<path d="M82.9128 5.04977H74.4851C74.8727 6.09544 75.0206 7.22995 74.9159 8.35335C74.8112 9.47676 74.457 10.5546 73.8846 11.4919C73.3122 12.4292 72.5392 13.1972 71.6335 13.7283C70.7279 14.2593 69.7175 14.5371 68.6913 14.5372H31.7037C30.6775 14.5371 29.6671 14.2593 28.7614 13.7283C27.8558 13.1972 27.0827 12.4292 26.5103 11.4919C25.9379 10.5546 25.5838 9.47676 25.479 8.35335C25.3743 7.22995 25.5223 6.09544 25.9098 5.04977H18.0384C16.3087 5.04977 14.5959 5.42469 12.9978 6.15314C11.3998 6.88158 9.94778 7.94927 8.72469 9.29526C7.5016 10.6412 6.53139 12.2392 5.86945 13.9978C5.20752 15.7564 4.86682 17.6413 4.86682 19.5448V203.257C4.86682 205.16 5.20752 207.045 5.86945 208.804C6.53138 210.563 7.50159 212.16 8.72469 213.506C9.94778 214.852 11.3998 215.92 12.9978 216.649C14.5959 217.377 16.3087 217.752 18.0384 217.752H82.9128C84.6425 217.752 86.3553 217.377 87.9533 216.649C89.5514 215.92 91.0034 214.852 92.2265 213.506C93.4496 212.16 94.4198 210.563 95.0817 208.804C95.7436 207.045 96.0843 205.16 96.0843 203.257V19.5448C96.0843 17.6413 95.7436 15.7564 95.0817 13.9978C94.4198 12.2392 93.4496 10.6412 92.2265 9.29526C91.0034 7.94927 89.5513 6.88158 87.9533 6.15314C86.3553 5.42469 84.6425 5.04977 82.9128 5.04977Z" fill="white"/>
<path d="M31.3623 42.3964H27.4889C27.3527 42.3964 27.2221 42.456 27.1258 42.562C27.0294 42.6679 26.9753 42.8117 26.9753 42.9616V44.8326C26.9753 44.9825 27.0294 45.1262 27.1258 45.2322C27.2221 45.3382 27.3527 45.3977 27.4889 45.3977H28.1308V48.2011H30.7204V45.3977H31.3623C31.4985 45.3977 31.6291 45.3382 31.7255 45.2322C31.8218 45.1262 31.8759 44.9825 31.8759 44.8326V42.9616C31.8759 42.8117 31.8218 42.6679 31.7255 42.562C31.6291 42.456 31.4985 42.3964 31.3623 42.3964Z" fill="#E6E6E6"/>
<path d="M35.242 59.5199C32.8698 55.6999 31.6571 51.1517 31.7776 46.5267C31.7797 46.42 31.7483 46.3158 31.6885 46.2317C31.6288 46.1476 31.5444 46.0889 31.4498 46.0655V45.257H27.3589V46.0543H27.3025C27.1912 46.0544 27.0845 46.1032 27.0059 46.19C26.9272 46.2767 26.8832 46.3943 26.8833 46.5168C26.8833 46.528 26.8837 46.5392 26.8845 46.5504C27.2067 51.4944 26.1185 55.9281 23.6196 59.8515C23.4758 60.0769 23.4023 60.3476 23.4102 60.623L23.8576 75.8501C23.8683 76.1897 23.9978 76.5117 24.2191 76.7487C24.4404 76.9858 24.7363 77.1197 25.0451 77.1224H34.2981C34.6104 77.1196 34.9094 76.9827 35.1314 76.7408C35.3533 76.499 35.4807 76.1713 35.4864 75.8277L35.6587 61.0434C35.6638 60.5007 35.5185 59.9693 35.242 59.5199Z" fill="#E6E6E6"/>
<path d="M33.7772 64.5779H25.7232C25.604 64.5779 25.4862 64.6063 25.3779 64.6611C25.2696 64.7158 25.1733 64.7958 25.0957 64.8953C25.018 64.9949 24.9609 65.1118 24.9282 65.2379C24.8954 65.3641 24.8879 65.4965 24.906 65.6262L26.123 74.3321H33.1116L34.5899 65.6556C34.6123 65.5241 34.6081 65.3889 34.5776 65.2595C34.5471 65.13 34.4911 65.0096 34.4135 64.9067C34.3359 64.8038 34.2387 64.721 34.1287 64.6642C34.0187 64.6073 33.8987 64.5779 33.7772 64.5779Z" fill="white"/>
<path d="M74.4814 88.0113H70.6079C70.4717 88.0113 70.3411 88.0708 70.2448 88.1768C70.1485 88.2828 70.0944 88.4265 70.0944 88.5764V90.4474C70.0944 90.5973 70.1485 90.741 70.2448 90.847C70.3411 90.953 70.4717 91.0125 70.6079 91.0125H71.2498V93.816H73.8395V91.0125H74.4814C74.6176 91.0125 74.7482 90.953 74.8445 90.847C74.9408 90.741 74.9949 90.5973 74.9949 90.4474V88.5764C74.9949 88.4265 74.9408 88.2828 74.8445 88.1768C74.7482 88.0708 74.6176 88.0113 74.4814 88.0113Z" fill="#E6E6E6"/>
<path d="M78.3609 105.135C75.9887 101.315 74.776 96.7665 74.8965 92.1415C74.8986 92.0348 74.8672 91.9306 74.8074 91.8465C74.7476 91.7624 74.6633 91.7037 74.5686 91.6803V90.8719H70.4778V91.6691H70.4214C70.3663 91.6692 70.3117 91.6812 70.2608 91.7045C70.2099 91.7278 70.1637 91.7618 70.1247 91.8048C70.0858 91.8478 70.055 91.8987 70.0339 91.9548C70.0129 92.0109 70.0021 92.071 70.0022 92.1316C70.0022 92.1428 70.0026 92.154 70.0033 92.1652C70.3256 97.1092 69.2373 101.543 66.7385 105.466C66.5947 105.692 66.5212 105.962 66.5291 106.238L66.9765 121.465C66.9872 121.805 67.1167 122.127 67.338 122.364C67.5593 122.601 67.8552 122.734 68.164 122.737H77.417C77.7293 122.734 78.0283 122.597 78.2502 122.356C78.4722 122.114 78.5996 121.786 78.6053 121.442L78.7776 106.658C78.7827 106.116 78.6374 105.584 78.3609 105.135Z" fill="#E6E6E6"/>
<path d="M76.8962 110.193H68.8423C68.723 110.193 68.6052 110.221 68.4969 110.276C68.3886 110.331 68.2923 110.411 68.2147 110.51C68.1371 110.61 68.0799 110.727 68.0472 110.853C68.0144 110.979 68.0069 111.111 68.025 111.241L69.2421 119.947H76.2307L77.709 111.27C77.7314 111.139 77.7271 111.004 77.6967 110.874C77.6662 110.745 77.6101 110.624 77.5325 110.522C77.4549 110.419 77.3577 110.336 77.2477 110.279C77.1377 110.222 77.0177 110.193 76.8962 110.193H76.8962Z" fill="white"/>
<path d="M25.9168 152.497H24.0794C24.0148 152.497 23.9528 152.525 23.9072 152.576C23.8615 152.626 23.8358 152.694 23.8358 152.765V153.653C23.8358 153.724 23.8615 153.792 23.9072 153.842C23.9528 153.893 24.0148 153.921 24.0794 153.921H24.3839V155.251H25.6123V153.921H25.9168C25.9814 153.921 26.0433 153.893 26.089 153.842C26.1347 153.792 26.1604 153.724 26.1604 153.653V152.765C26.1604 152.694 26.1347 152.626 26.089 152.576C26.0433 152.525 25.9814 152.497 25.9168 152.497Z" fill="#E6E6E6"/>
<path d="M27.757 160.62C26.6318 158.808 26.0565 156.65 26.1137 154.456C26.1147 154.406 26.0998 154.356 26.0714 154.316C26.0431 154.277 26.0031 154.249 25.9582 154.238V153.854H24.0177V154.232H23.991C23.9648 154.232 23.9389 154.238 23.9148 154.249C23.8906 154.26 23.8687 154.276 23.8502 154.297C23.8318 154.317 23.8171 154.341 23.8072 154.368C23.7972 154.394 23.7921 154.423 23.7921 154.452C23.7921 154.457 23.7923 154.462 23.7927 154.468C23.9718 156.706 23.4229 158.942 22.244 160.777C22.1758 160.884 22.1409 161.012 22.1447 161.143L22.3568 168.366C22.3619 168.527 22.4234 168.68 22.5284 168.792C22.6333 168.905 22.7737 168.968 22.9202 168.969H27.3093C27.4574 168.968 27.5992 168.903 27.7045 168.788C27.8098 168.674 27.8702 168.518 27.8729 168.355L27.9547 161.342C27.9571 161.085 27.8882 160.833 27.757 160.62Z" fill="#E6E6E6"/>
<path d="M27.1254 163.275H22.9375V165.579H27.1254V163.275Z" fill="white"/>
<path d="M34.4696 152.497H32.6323C32.5677 152.497 32.5057 152.525 32.46 152.576C32.4143 152.626 32.3887 152.694 32.3887 152.765V153.653C32.3887 153.724 32.4143 153.792 32.46 153.842C32.5057 153.893 32.5677 153.921 32.6323 153.921H32.9367V155.251H34.1651V153.921H34.4696C34.5342 153.921 34.5962 153.893 34.6419 153.842C34.6876 153.792 34.7132 153.724 34.7132 153.653V152.765C34.7132 152.694 34.6876 152.626 34.6419 152.576C34.5962 152.525 34.5342 152.497 34.4696 152.497Z" fill="#E6E6E6"/>
<path d="M36.31 160.62C35.1848 158.808 34.6095 156.65 34.6667 154.456C34.6677 154.406 34.6528 154.356 34.6244 154.316C34.5961 154.277 34.5561 154.249 34.5112 154.238V153.854H32.5707V154.232H32.5439C32.5178 154.232 32.4919 154.238 32.4678 154.249C32.4436 154.26 32.4217 154.276 32.4032 154.297C32.3848 154.317 32.3701 154.341 32.3601 154.368C32.3502 154.394 32.3451 154.423 32.3451 154.452C32.3451 154.457 32.3453 154.462 32.3456 154.468C32.5247 156.706 31.9759 158.942 30.797 160.777C30.7288 160.884 30.6939 161.012 30.6977 161.143L30.9098 168.366C30.9149 168.527 30.9764 168.68 31.0813 168.792C31.1863 168.905 31.3267 168.968 31.4732 168.969H35.8623C36.0104 168.968 36.1522 168.903 36.2575 168.788C36.3628 168.674 36.4232 168.518 36.4259 168.355L36.5077 161.342C36.5101 161.085 36.4412 160.833 36.31 160.62Z" fill="#E6E6E6"/>
<path d="M35.6783 163.275H31.4904V165.579H35.6783V163.275Z" fill="white"/>
<path d="M43.0226 152.497H41.1853C41.1206 152.497 41.0587 152.525 41.013 152.576C40.9673 152.626 40.9417 152.694 40.9417 152.765V153.653C40.9417 153.724 40.9673 153.792 41.013 153.842C41.0587 153.893 41.1206 153.921 41.1853 153.921H41.4897V155.251H42.7181V153.921H43.0226C43.0872 153.921 43.1492 153.893 43.1949 153.842C43.2405 153.792 43.2662 153.724 43.2662 153.653V152.765C43.2662 152.694 43.2405 152.626 43.1949 152.576C43.1492 152.525 43.0872 152.497 43.0226 152.497Z" fill="#E6E6E6"/>
<path d="M44.8629 160.62C43.7376 158.808 43.1624 156.65 43.2195 154.456C43.2206 154.406 43.2056 154.356 43.1773 154.316C43.1489 154.277 43.1089 154.249 43.064 154.238V153.854H41.1235V154.232H41.0968C41.0706 154.232 41.0448 154.238 41.0206 154.249C40.9965 154.26 40.9745 154.276 40.9561 154.297C40.9376 154.317 40.923 154.341 40.913 154.368C40.903 154.394 40.8979 154.423 40.8979 154.452C40.8979 154.457 40.8981 154.462 40.8985 154.468C41.0776 156.706 40.5288 158.942 39.3498 160.777C39.2816 160.884 39.2468 161.012 39.2505 161.143L39.4627 168.366C39.4678 168.527 39.5292 168.68 39.6342 168.792C39.7392 168.905 39.8795 168.968 40.026 168.969H44.4151C44.5633 168.968 44.7051 168.903 44.8104 168.788C44.9157 168.674 44.9761 168.518 44.9788 168.355L45.0605 161.342C45.063 161.085 44.994 160.833 44.8629 160.62Z" fill="#E6E6E6"/>
<path d="M44.2312 163.275H40.0433V165.579H44.2312V163.275Z" fill="white"/>
<path d="M67.7522 134.851H63.8788C63.8113 134.851 63.7446 134.865 63.6823 134.894C63.62 134.922 63.5633 134.964 63.5157 135.016C63.468 135.069 63.4301 135.131 63.4043 135.199C63.3785 135.268 63.3652 135.342 63.3652 135.416V137.287C63.3652 137.437 63.4193 137.58 63.5157 137.686C63.612 137.792 63.7426 137.852 63.8788 137.852H64.5207V140.655H67.1103V137.852H67.7522C67.8884 137.852 68.0191 137.792 68.1154 137.686C68.2117 137.58 68.2658 137.437 68.2658 137.287V135.416C68.2658 135.342 68.2525 135.268 68.2267 135.199C68.2009 135.131 68.1631 135.069 68.1154 135.016C68.0677 134.964 68.0111 134.922 67.9488 134.894C67.8865 134.865 67.8197 134.851 67.7522 134.851Z" fill="#E6E6E6"/>
<path d="M71.6319 151.974C69.2597 148.154 68.047 143.606 68.1675 138.981C68.1696 138.874 68.1382 138.77 68.0784 138.686C68.0187 138.602 67.9343 138.543 67.8397 138.52V137.711H63.7488V138.508H63.6924C63.6373 138.509 63.5827 138.521 63.5318 138.544C63.4809 138.567 63.4347 138.601 63.3958 138.644C63.3568 138.687 63.326 138.738 63.3049 138.794C63.2839 138.85 63.2731 138.91 63.2732 138.971C63.2732 138.982 63.2736 138.993 63.2743 139.005C63.5966 143.949 62.5084 148.382 60.0095 152.306C59.8657 152.531 59.7922 152.802 59.8001 153.077L60.2475 168.304C60.2582 168.644 60.3877 168.966 60.609 169.203C60.8303 169.44 61.1262 169.574 61.435 169.577H70.688C71.0003 169.574 71.2993 169.437 71.5213 169.195C71.7432 168.953 71.8706 168.626 71.8763 168.282L72.0486 153.498C72.0538 152.955 71.9084 152.423 71.6319 151.974Z" fill="#E6E6E6"/>
<path d="M70.1671 157.032H62.1131C61.9939 157.032 61.8761 157.06 61.7678 157.115C61.6595 157.17 61.5632 157.25 61.4856 157.349C61.4079 157.449 61.3508 157.566 61.318 157.692C61.2853 157.818 61.2777 157.951 61.2959 158.08L62.5129 166.786H69.5015L70.9798 158.11C71.0022 157.978 70.998 157.843 70.9675 157.714C70.937 157.584 70.881 157.464 70.8034 157.361C70.7258 157.258 70.6286 157.175 70.5186 157.118C70.4086 157.062 70.2886 157.032 70.1671 157.032Z" fill="white"/>
<path d="M69.8669 79.0827H46.7773C48.3916 69.478 48.0202 57.8801 46.7773 45.4073H69.8669C68.657 57.8801 68.2955 69.478 69.8669 79.0827Z" fill="#E6E6E6"/>
<path d="M58.4612 67.4493C61.534 67.4493 64.0249 64.7081 64.0249 61.3265C64.0249 57.945 61.534 55.2037 58.4612 55.2037C55.3884 55.2037 52.8975 57.945 52.8975 61.3265C52.8975 64.7081 55.3884 67.4493 58.4612 67.4493Z" fill="white"/>
<path d="M48.7246 123.779H25.6351C27.2494 114.174 26.878 102.576 25.6351 90.1037H48.7246C47.5148 102.576 47.1533 114.174 48.7246 123.779Z" fill="#E6E6E6"/>
<path d="M37.319 112.146C40.3918 112.146 42.8827 109.404 42.8827 106.023C42.8827 102.641 40.3918 99.9001 37.319 99.9001C34.2462 99.9001 31.7552 102.641 31.7552 106.023C31.7552 109.404 34.2462 112.146 37.319 112.146Z" fill="white"/>
<path d="M82.9417 81.2256H59.8522C61.4665 71.6209 61.0951 60.023 59.8522 47.5502H82.9417C81.7319 60.0231 81.3703 71.621 82.9417 81.2256Z" fill="#E6E6E6"/>
<path d="M71.536 69.5923C74.6088 69.5923 77.0998 66.851 77.0998 63.4695C77.0998 60.088 74.6088 57.3467 71.536 57.3467C68.4633 57.3467 65.9723 60.088 65.9723 63.4695C65.9723 66.851 68.4633 69.5923 71.536 69.5923Z" fill="white"/>
<path d="M82.9417 79.6949H59.8522C61.4665 70.0903 61.0951 58.4923 59.8522 46.0195H82.9417C81.7319 58.4924 81.3703 70.0903 82.9417 79.6949Z" fill="#E6E6E6"/>
<path d="M71.536 68.0616C74.6088 68.0616 77.0998 65.3204 77.0998 61.9388C77.0998 58.5573 74.6088 55.816 71.536 55.816C68.4633 55.816 65.9723 58.5573 65.9723 61.9388C65.9723 65.3204 68.4633 68.0616 71.536 68.0616Z" fill="white"/>
<path d="M82.9417 81.2256H59.8522C61.4665 71.6209 61.0951 60.023 59.8522 47.5502H82.9417C81.7319 60.0231 81.3703 71.621 82.9417 81.2256Z" fill="#E6E6E6"/>
<path d="M71.536 69.5923C74.6088 69.5923 77.0998 66.851 77.0998 63.4695C77.0998 60.088 74.6088 57.3467 71.536 57.3467C68.4633 57.3467 65.9723 60.088 65.9723 63.4695C65.9723 66.851 68.4633 69.5923 71.536 69.5923Z" fill="white"/>
<path d="M88.2271 77.2458H12.5603V86.43H88.2271V77.2458Z" fill="#E6E6E6"/>
<path d="M88.2271 122.861H12.5603V132.045H88.2271V122.861Z" fill="#E6E6E6"/>
<path d="M88.2271 168.475H12.5603V177.66H88.2271V168.475Z" fill="#E6E6E6"/>
<path d="M219.858 190.113C222.931 190.113 225.422 187.372 225.422 183.991C225.422 180.609 222.931 177.868 219.858 177.868C216.785 177.868 214.294 180.609 214.294 183.991C214.294 187.372 216.785 190.113 219.858 190.113Z" fill="white"/>
<path opacity="0.2" d="M47.4867 145.106C47.4867 145.278 47.4244 145.444 47.3134 145.566C47.2024 145.688 47.0518 145.757 46.8948 145.757C46.7379 145.757 46.5873 145.688 46.4763 145.566C46.3653 145.444 46.303 145.278 46.303 145.106" fill="black"/>
<path opacity="0.2" d="M112.593 177.168C112.593 177.491 112.476 177.801 112.268 178.03C112.061 178.259 111.779 178.387 111.485 178.387C111.191 178.387 110.909 178.259 110.702 178.03C110.494 177.801 110.377 177.491 110.377 177.168" fill="black"/>
<path d="M115.815 198.74H107.761C107.642 198.74 107.524 198.768 107.416 198.823C107.308 198.878 107.212 198.958 107.134 199.057C107.056 199.157 106.999 199.274 106.966 199.4C106.934 199.526 106.926 199.658 106.944 199.788L108.161 208.494H115.15L116.628 199.817C116.651 199.686 116.646 199.551 116.616 199.421C116.585 199.292 116.529 199.171 116.452 199.069C116.374 198.966 116.277 198.883 116.167 198.826C116.057 198.769 115.937 198.74 115.815 198.74Z" fill="white"/>
<path d="M113.4 176.558H109.527C109.391 176.558 109.26 176.618 109.164 176.724C109.068 176.83 109.013 176.974 109.013 177.123V178.994C109.013 179.144 109.068 179.288 109.164 179.394C109.26 179.5 109.391 179.56 109.527 179.56H110.169V182.363H112.759V179.56H113.4C113.537 179.56 113.667 179.5 113.764 179.394C113.86 179.288 113.914 179.144 113.914 178.994V177.123C113.914 176.974 113.86 176.83 113.764 176.724C113.667 176.618 113.537 176.558 113.4 176.558Z" fill="#E6E6E6"/>
<path d="M117.28 193.682C114.908 189.862 113.695 185.313 113.816 180.689C113.818 180.582 113.786 180.478 113.727 180.394C113.667 180.309 113.582 180.251 113.488 180.227V179.419H109.397V180.216H109.341C109.285 180.216 109.231 180.228 109.18 180.251C109.129 180.275 109.083 180.309 109.044 180.352C109.005 180.395 108.974 180.446 108.953 180.502C108.932 180.558 108.921 180.618 108.921 180.679C108.921 180.69 108.922 180.701 108.923 180.712C109.245 185.656 108.157 190.09 105.658 194.013C105.514 194.239 105.44 194.509 105.448 194.785L105.896 210.012C105.906 210.352 106.036 210.674 106.257 210.911C106.478 211.148 106.774 211.281 107.083 211.284H116.336C116.648 211.281 116.947 211.145 117.169 210.903C117.391 210.661 117.519 210.333 117.524 209.99L117.697 195.205C117.702 194.663 117.557 194.131 117.28 193.682Z" fill="#226089"/>
<path d="M148.851 193.166L130 178.493C136.358 171.678 142.14 161.973 147.67 151L166.521 165.673C158.989 175.087 152.608 184.326 148.851 193.166Z" fill="#226089"/>
<path d="M158.09 215.675H135C136.614 206.071 136.243 194.473 135 182H158.09C156.88 194.473 156.518 206.071 158.09 215.675Z" fill="#226089"/>
<path d="M90.9431 200.078C94.0159 200.078 96.5069 197.337 96.5069 193.955C96.5069 190.574 94.0159 187.832 90.9431 187.832C87.8704 187.832 85.3794 190.574 85.3794 193.955C85.3794 197.337 87.8704 200.078 90.9431 200.078Z" fill="white"/>
<path d="M7.9071 105.73L13.0905 105.212L16.3891 96.3961L10.4989 92.766L7.9071 105.73Z" fill="#FFB8B8"/>
<path d="M24.7531 146.404L30.5 144L27.1236 119.037L13.352 101.655C12.6354 100.75 11.6453 100.163 10.5651 100C9.48485 99.8374 8.38769 100.111 7.47684 100.771C6.92536 101.17 6.46028 101.698 6.11451 102.317C5.76873 102.935 5.55068 103.63 5.47577 104.352C5.40086 105.074 5.47093 105.805 5.681 106.494C5.89108 107.182 6.23605 107.812 6.69153 108.338L18.053 123.725L24.7531 146.404Z" fill="#575A89"/>
<path d="M3.90173 223.445H8.61393L20.302 165.291L32.4105 183.256L39.4788 222.149H43.9554L43.013 180.404L27.2271 135.807H11.6769C7.42737 144.271 4.09383 152.995 7.9071 161.995L3.90173 223.445Z" fill="#2F2E41"/>
<path d="M36.5901 226.978C36.538 227.161 36.5221 227.355 36.5433 227.545C36.5645 227.736 36.6223 227.92 36.7131 228.084C36.8038 228.248 36.9253 228.39 37.0694 228.498C37.2136 228.607 37.3771 228.68 37.5491 228.714L49.0799 230.966C49.5355 231.057 50.0059 230.963 50.4024 230.699C50.7989 230.435 51.094 230.021 51.2321 229.535C51.3665 229.07 51.3478 228.568 51.1791 228.116C51.0105 227.665 50.7028 227.294 50.31 227.068C47.7746 225.635 45.5926 223.547 43.951 220.983C42.6836 222.282 41.2672 222.16 39.763 221.203L38.1677 221.422L36.5901 226.978Z" fill="#2F2E41"/>
<path d="M1.71992 226.978C1.66782 227.161 1.65183 227.355 1.67302 227.545C1.69422 227.736 1.7521 227.92 1.84283 228.084C1.93355 228.248 2.05504 228.39 2.19919 228.498C2.34334 228.607 2.50685 228.68 2.67884 228.714L14.2096 230.966C14.6653 231.057 15.1357 230.963 15.5321 230.699C15.9286 230.435 16.2237 230.021 16.3619 229.535C16.4963 229.07 16.4775 228.568 16.3089 228.116C16.1402 227.665 15.8325 227.294 15.4398 227.068C12.9044 225.635 10.7224 223.547 9.0807 220.983C7.81339 222.282 6.39694 222.16 4.89281 221.203L3.29742 221.422L1.71992 226.978Z" fill="#2F2E41"/>
<path d="M16.5069 99.6371C20.1503 99.6371 23.1039 96.3867 23.1039 92.3771C23.1039 88.3675 20.1503 85.1171 16.5069 85.1171C12.8634 85.1171 9.90979 88.3675 9.90979 92.3771C9.90979 96.3867 12.8634 99.6371 16.5069 99.6371Z" fill="#FFB8B8"/>
<path d="M10.6166 137.752L27.8161 137.233L22.765 119.739C25.904 114.201 22.7449 108.668 18.2739 103.137L14.7398 100.545L9.08513 100.026C6.63689 102.909 5.29729 106.723 5.34691 110.668C5.45887 119.117 6.81827 128.314 10.6166 137.752Z" fill="#226089"/>
<path d="M47.6084 157.121C47.9359 156.761 48.181 156.32 48.3234 155.835C48.4657 155.35 48.5013 154.835 48.4273 154.332C48.3532 153.829 48.1715 153.352 47.8973 152.941C47.623 152.531 47.264 152.198 46.8499 151.97L39.6396 148L37 151.474L43.7219 157.363C44.2836 157.855 44.9902 158.102 45.707 158.057C46.4238 158.013 47.1006 157.68 47.6084 157.121Z" fill="#FFB8B8"/>
<path d="M38.5 153.5L43 150L32.6926 131.887L26.2447 109.944C25.9092 108.803 25.2091 107.834 24.2741 107.217C23.3391 106.599 22.2325 106.376 21.1594 106.588C20.5096 106.717 19.8934 107 19.3543 107.42C18.8152 107.839 18.3663 108.383 18.0394 109.014C17.7126 109.646 17.5156 110.348 17.4626 111.072C17.4095 111.796 17.5016 112.524 17.7324 113.205L22.6775 132.27L38.5 153.5Z" fill="#226089"/>
<path d="M5.66882 89.525C5.66882 92.3498 7.33588 96.7246 9.43858 98.5999C10.8533 99.8617 12.7231 99.8085 13.4439 98.0813C14.1834 96.3095 16.7325 92.1448 21.2191 89.525C27.1999 86.0325 19.0981 80.0575 13.4439 80.9686C9.19517 81.6532 5.66882 84.7994 5.66882 89.525Z" fill="#2F2E41"/>
<path d="M9.67411 85.6357C12.2766 85.6357 14.3863 83.314 14.3863 80.45C14.3863 77.586 12.2766 75.2643 9.67411 75.2643C7.07164 75.2643 4.96191 77.586 4.96191 80.45C4.96191 83.314 7.07164 85.6357 9.67411 85.6357Z" fill="#2F2E41"/>
<path d="M15.0931 78.635C15.0927 77.3277 14.6432 76.0688 13.8349 75.1108C13.0266 74.1527 11.9191 73.5663 10.7344 73.469C10.8515 73.4594 10.9685 73.4493 11.0878 73.4493C12.3375 73.4493 13.5361 73.9957 14.4198 74.9682C15.3035 75.9407 15.8 77.2597 15.8 78.635C15.8 80.0104 15.3035 81.3294 14.4198 82.3019C13.5361 83.2744 12.3375 83.8207 11.0878 83.8207C10.9685 83.8207 10.8515 83.8107 10.7344 83.8011C11.9191 83.7038 13.0266 83.1173 13.8349 82.1593C14.6432 81.2012 15.0927 79.9424 15.0931 78.635Z" fill="#2F2E41"/>
<path d="M16.6247 94.9699C17.2103 94.9699 17.6849 94.2734 17.6849 93.4142C17.6849 92.555 17.2103 91.8585 16.6247 91.8585C16.0391 91.8585 15.5645 92.555 15.5645 93.4142C15.5645 94.2734 16.0391 94.9699 16.6247 94.9699Z" fill="#FFB8B8"/>
<path d="M169.91 217.249H96.5559L81.0224 136.439H67.7656V132.813H83.6931L99.2266 213.623H169.91V217.249Z" fill="black"/>
<path d="M107.306 232.012C111.205 232.012 114.366 228.533 114.366 224.242C114.366 219.951 111.205 216.472 107.306 216.472C103.406 216.472 100.245 219.951 100.245 224.242C100.245 228.533 103.406 232.012 107.306 232.012Z" fill="black"/>
<path d="M160.025 232.012C163.925 232.012 167.086 228.533 167.086 224.242C167.086 219.951 163.925 216.472 160.025 216.472C156.126 216.472 152.965 219.951 152.965 224.242C152.965 228.533 156.126 232.012 160.025 232.012Z" fill="black"/>
<path d="M168.573 215.541H97.2031L84.6106 147.058H180.39C180.879 147.058 181.362 147.175 181.805 147.4C182.249 147.625 182.644 147.953 182.961 148.362C183.279 148.771 183.512 149.25 183.646 149.768C183.779 150.285 183.809 150.828 183.733 151.36L171.915 212.396C171.793 213.274 171.388 214.075 170.775 214.652C170.161 215.229 169.38 215.545 168.573 215.541ZM97.9781 214.505H168.573C169.155 214.508 169.719 214.28 170.162 213.863C170.605 213.447 170.897 212.869 170.985 212.235L182.802 151.199C182.857 150.815 182.836 150.423 182.74 150.05C182.644 149.676 182.475 149.33 182.246 149.035C182.017 148.74 181.732 148.503 181.412 148.341C181.091 148.178 180.743 148.094 180.39 148.094H85.7534L97.9781 214.505Z" fill="black"/>
<path d="M111.078 215.322L102.831 147.661L103.76 147.492L112.006 215.153L111.078 215.322Z" fill="black"/>
<path d="M156.932 214.803L156.003 214.637L164.008 147.493L164.938 147.659L156.932 214.803Z" fill="black"/>
<path d="M135.085 147.576H134.143V215.238H135.085V147.576Z" fill="black"/>
<path d="M89.4196 165.707L89.4174 166.743L180.546 166.986L180.548 165.95L89.4196 165.707Z" fill="black"/>
<path d="M174.118 197.71L94.0591 198.313L94.0655 199.349L174.124 198.746L174.118 197.71Z" fill="black"/>
<path d="M69.1778 137.216C72.0375 137.216 74.3557 135.825 74.3557 134.108C74.3557 132.392 72.0375 131 69.1778 131C66.3182 131 64 132.392 64 134.108C64 135.825 66.3182 137.216 69.1778 137.216Z" fill="black"/>
</svg>
